<svg width="72" height="72" viewBox="0 0 72 72" fill="none" xmlns="http://www.w3.org/2000/svg">
<rect width="72" height="72" rx="36" fill="#26262E"/>
<path d="M44.3841 36.8846L31.8841 49.3846C31.768 49.5007 31.6301 49.5928 31.4783 49.6557C31.3266 49.7186 31.164 49.7509 30.9997 49.7509C30.8355 49.7509 30.6728 49.7186 30.5211 49.6557C30.3694 49.5928 30.2315 49.5007 30.1153 49.3846C29.9992 49.2684 29.9071 49.1306 29.8442 48.9788C29.7814 48.8271 29.749 48.6645 29.749 48.5002C29.749 48.336 29.7814 48.1733 29.8442 48.0216C29.9071 47.8698 29.9992 47.732 30.1153 47.6158L41.7325 36.0002L30.1153 24.3846C29.8808 24.15 29.749 23.8319 29.749 23.5002C29.749 23.1685 29.8808 22.8504 30.1153 22.6158C30.3499 22.3813 30.668 22.2495 30.9997 22.2495C31.3314 22.2495 31.6495 22.3813 31.8841 22.6158L44.3841 35.1158C44.5003 35.2319 44.5925 35.3698 44.6554 35.5215C44.7183 35.6733 44.7507 35.8359 44.7507 36.0002C44.7507 36.1645 44.7183 36.3271 44.6554 36.4789C44.5925 36.6306 44.5003 36.7685 44.3841 36.8846Z" fill="#FEFEFE"/>
</svg>
