<svg width="24" height="25" viewBox="0 0 24 25" fill="none" xmlns="http://www.w3.org/2000/svg">
<path d="M21.1601 5.50025C21.1601 5.50025 20.2401 5.35025 19.0001 5.28025V4.50025C19.0009 4.24833 18.9066 4.00539 18.736 3.81999C18.5655 3.63459 18.3312 3.5204 18.0801 3.50025C17.6701 3.50025 14.2701 3.23025 12.0001 4.35025C9.73008 3.23025 6.33008 3.50025 5.92008 3.50025C5.66897 3.5204 5.43471 3.63459 5.26415 3.81999C5.09358 4.00539 4.99928 4.24833 5.00008 4.50025V5.29025C3.76008 5.36025 2.88008 5.50025 2.84008 5.50025C2.60346 5.53859 2.38848 5.66064 2.2343 5.84419C2.08012 6.02774 1.997 6.26056 2.00008 6.50025V20.5003C2.00008 20.7655 2.10544 21.0198 2.29298 21.2074C2.48051 21.3949 2.73487 21.5003 3.00008 21.5003H21.0001C21.2653 21.5003 21.5197 21.3949 21.7072 21.2074C21.8947 21.0198 22.0001 20.7655 22.0001 20.5003V6.50025C22.0032 6.26056 21.92 6.02774 21.7659 5.84419C21.6117 5.66064 21.3967 5.53859 21.1601 5.50025ZM7.00008 5.50025C8.36132 5.45448 9.71882 5.66829 11.0001 6.13025V15.5003C11.0001 15.7655 11.1054 16.0198 11.293 16.2074C11.4805 16.3949 11.7349 16.5003 12.0001 16.5003C12.2653 16.5003 12.5197 16.3949 12.7072 16.2074C12.8947 16.0198 13.0001 15.7655 13.0001 15.5003V6.09025C14.2855 5.64812 15.6417 5.44808 17.0001 5.50025V16.5003C15.2656 16.5869 13.5657 17.0187 12.0001 17.7703C10.4344 17.0187 8.73461 16.5869 7.00008 16.5003V5.50025ZM4.00008 7.38025C4.28008 7.38025 4.62008 7.32025 5.00008 7.30025V17.5003C5.00008 17.7655 5.10544 18.0198 5.29298 18.2074C5.48051 18.3949 5.73487 18.5003 6.00008 18.5003C7.68402 18.5009 9.35054 18.841 10.9001 19.5003H4.00008V7.38025ZM20.0001 19.5003H13.1001C14.6496 18.841 16.3161 18.5009 18.0001 18.5003C18.2653 18.5003 18.5197 18.3949 18.7072 18.2074C18.8947 18.0198 19.0001 17.7655 19.0001 17.5003V7.29025L20.0001 7.38025V19.5003Z" fill="#26262E"/>
</svg>
