<svg width="24" height="25" viewBox="0 0 24 25" fill="none" xmlns="http://www.w3.org/2000/svg">
<path d="M15.1304 12.4999C15.1201 13.3278 14.7873 14.1189 14.2028 14.7053C13.6183 15.2917 12.8282 15.627 12.0004 15.6399C11.1657 15.6399 10.365 15.3097 9.77296 14.7214C9.18091 14.1331 8.84565 13.3345 8.84037 12.4999C8.81623 12.072 8.87968 11.6436 9.02682 11.2411C9.17396 10.8385 9.40171 10.4702 9.69612 10.1587C9.99053 9.84725 10.3454 9.59912 10.739 9.42954C11.1327 9.25996 11.5568 9.17249 11.9854 9.17249C12.414 9.17249 12.8381 9.25996 13.2317 9.42954C13.6253 9.59912 13.9802 9.84725 14.2746 10.1587C14.569 10.4702 14.7968 10.8385 14.9439 11.2411C15.0911 11.6436 15.1545 12.072 15.1304 12.4999ZM22.0004 8.0299V8.4999C22.0004 11.3199 22.0004 14.1499 22.0004 16.9599C22.0124 17.7767 21.8385 18.5855 21.4921 19.3252C21.1456 20.0649 20.6355 20.7162 20.0004 21.2299C19.0141 22.0765 17.7498 22.5288 16.4504 22.4999H16.1304C13.2704 22.4999 10.4104 22.4999 7.54037 22.4999C6.80862 22.4999 6.08412 22.355 5.40869 22.0735C4.73327 21.7919 4.12031 21.3794 3.60522 20.8596C3.09012 20.3399 2.68309 19.7233 2.40764 19.0453C2.13219 18.3674 1.99377 17.6416 2.00037 16.9099V8.1499C1.96173 6.82208 2.40584 5.52527 3.25037 4.4999C4.0143 3.56194 5.07054 2.90706 6.25037 2.6399C6.68592 2.53673 7.13288 2.48968 7.58037 2.4999H16.4004C17.2218 2.49483 18.0342 2.67151 18.7793 3.01728C19.5245 3.36305 20.1839 3.86935 20.7104 4.4999C21.5563 5.47996 22.0151 6.73532 22.0004 8.0299ZM17.1304 12.4999C17.1323 11.4801 16.8315 10.4826 16.2659 9.63393C15.7003 8.78527 14.8955 8.12364 13.9535 7.73291C13.0115 7.34218 11.9746 7.23994 10.9744 7.43915C9.97422 7.63836 9.05568 8.13005 8.33524 8.85189C7.6148 9.57374 7.1249 10.4932 6.92764 11.4938C6.73037 12.4944 6.83463 13.531 7.2272 14.4723C7.61977 15.4136 8.28296 16.2171 9.13272 16.781C9.98247 17.3449 10.9805 17.6439 12.0004 17.6399C13.3602 17.632 14.662 17.0876 15.6226 16.1251C16.5833 15.1626 17.1251 13.8598 17.1304 12.4999ZM19.0004 7.0099C18.9978 6.61195 18.8392 6.23088 18.5588 5.94855C18.2783 5.66621 17.8983 5.50513 17.5004 5.4999C17.2041 5.49991 16.9145 5.58764 16.6681 5.75202C16.4216 5.91641 16.2294 6.15009 16.1155 6.42359C16.0017 6.6971 15.9714 6.99819 16.0285 7.28888C16.0856 7.57958 16.2274 7.84686 16.4362 8.05703C16.645 8.26721 16.9113 8.41085 17.2017 8.46985C17.492 8.52885 17.7932 8.50057 18.0675 8.38857C18.3418 8.27657 18.5767 8.08587 18.7427 7.84052C18.9087 7.59516 18.9984 7.30614 19.0004 7.0099Z" fill="#57595B"/>
</svg>
