<svg width="24" height="25" viewBox="0 0 24 25" fill="none" xmlns="http://www.w3.org/2000/svg">
<path d="M13.2983 10.9674V11.0136H13.27L13.2983 10.9674Z" fill="#57595B"/>
<path fill-rule="evenodd" clip-rule="evenodd" d="M6.43081 22.5V9.00534H2.24731V22.5H6.43081ZM4.33904 7.16287C5.79791 7.16287 6.70594 6.12663 6.70594 4.83164C6.67875 3.50749 5.79791 2.5 4.36671 2.5C2.93566 2.5 2 3.50749 2 4.83164C2 6.12663 2.90783 7.16287 4.31177 7.16287H4.33904ZM9.05879 22.5H13.2982V14.9975C13.2982 14.5959 13.3258 14.1948 13.4377 13.9078C13.7442 13.1055 14.4418 12.2747 15.613 12.2747C17.1471 12.2747 17.7608 13.5067 17.7608 15.3127V22.5H22V14.7967C22 10.6702 19.9084 8.75 17.1191 8.75C14.8701 8.75 13.8618 10.0519 13.2983 10.9674V9.06526H9.05879C9.11442 10.3259 9.05879 22.5 9.05879 22.5Z" fill="#57595B"/>
</svg>
