<svg width="20" height="21" viewBox="0 0 20 21" fill="none" xmlns="http://www.w3.org/2000/svg">
<path d="M17.3727 12.8795L13.6922 11.2303L13.682 11.2256C13.491 11.1439 13.2825 11.1111 13.0756 11.1302C12.8687 11.1493 12.6698 11.2197 12.4969 11.335C12.4765 11.3484 12.457 11.3631 12.4383 11.3787L10.5367 12.9998C9.33204 12.4147 8.08829 11.1803 7.50313 9.99125L9.12657 8.06078C9.14219 8.04125 9.15704 8.02172 9.1711 8.00062C9.28394 7.8282 9.35239 7.63056 9.37039 7.42529C9.38838 7.22002 9.35534 7.01348 9.27423 6.82406V6.81469L7.62032 3.12797C7.51309 2.88052 7.3287 2.67438 7.09468 2.54034C6.86067 2.4063 6.58958 2.35153 6.32188 2.38422C5.26326 2.52352 4.29155 3.04341 3.58824 3.84679C2.88492 4.65017 2.49809 5.6821 2.50001 6.74984C2.50001 12.953 7.54688 17.9998 13.75 17.9998C14.8177 18.0018 15.8497 17.6149 16.6531 16.9116C17.4564 16.2083 17.9763 15.2366 18.1156 14.178C18.1484 13.9104 18.0937 13.6393 17.9598 13.4053C17.8259 13.1713 17.62 12.9869 17.3727 12.8795ZM13.75 16.7498C11.0987 16.7469 8.55687 15.6924 6.68214 13.8177C4.8074 11.943 3.7529 9.40112 3.75001 6.74984C3.74707 5.98694 4.02192 5.24906 4.52324 4.67399C5.02456 4.09892 5.71806 3.72599 6.47423 3.62484C6.47392 3.62796 6.47392 3.6311 6.47423 3.63422L8.11485 7.30609L6.50001 9.2389C6.48362 9.25776 6.46873 9.27788 6.45548 9.29906C6.33791 9.47947 6.26894 9.68718 6.25525 9.90208C6.24157 10.117 6.28362 10.3318 6.37735 10.5256C7.08516 11.9733 8.54376 13.4209 10.007 14.128C10.2023 14.2208 10.4184 14.2614 10.634 14.2458C10.8497 14.2302 11.0576 14.1589 11.2375 14.0389C11.2576 14.0254 11.2769 14.0108 11.2953 13.9952L13.1945 12.3748L16.8664 14.0194C16.8664 14.0194 16.8727 14.0194 16.875 14.0194C16.7751 14.7766 16.4027 15.4715 15.8275 15.9741C15.2524 16.4766 14.5138 16.7524 13.75 16.7498Z" fill="#158BE3"/>
</svg>
